<svg width="1280" height="450" viewBox="0 0 1280 450" fill="none" xmlns="http://www.w3.org/2000/svg">
<path d="M810.75 363C802.75 363 796.083 360.333 790.75 355C785.417 349.667 782.75 341.667 782.75 331C782.75 322.667 784.333 314.583 787.5 306.75C790.833 298.75 795.167 291.583 800.5 285.25C805.833 278.917 811.75 273.917 818.25 270.25C824.75 266.417 831.167 264.5 837.5 264.5C844.333 264.5 849 266.5 851.5 270.5C854 274.5 855.25 278.667 855.25 283C855.25 287.833 854.083 292.083 851.75 295.75C849.583 299.417 846.583 301.25 842.75 301.25C839.917 301.25 837.5 300 835.5 297.5C838 296.167 840.167 293.5 842 289.5C843.833 285.333 844.75 281.417 844.75 277.75C844.75 275.75 844.333 274.25 843.5 273.25C842.833 272.083 841.417 271.5 839.25 271.5C834.75 271.5 830.083 273.5 825.25 277.5C820.583 281.5 816.167 286.667 812 293C808 299.333 804.667 306 802 313C799.5 320 798.25 326.583 798.25 332.75C798.25 337.917 799.5 342.667 802 347C804.5 351.333 809.333 353.5 816.5 353.5C823.167 353.5 829.833 351.667 836.5 348C843.333 344.333 849.667 339.083 855.5 332.25C861.333 325.417 866 317.417 869.5 308.25L872.75 310.75C868.917 320.75 863.667 329.75 857 337.75C850.333 345.583 843 351.75 835 356.25C827 360.75 818.917 363 810.75 363ZM912.811 241C910.144 241 907.727 240.333 905.561 239C903.561 237.667 902.561 235.583 902.561 232.75C902.561 229.25 904.561 226.25 908.561 223.75C912.727 221.083 916.811 219.75 920.811 219.75C923.311 219.75 925.311 220.333 926.811 221.5C928.311 222.667 929.061 224.667 929.061 227.5C929.061 230.667 927.311 233.75 923.811 236.75C920.477 239.583 916.811 241 912.811 241ZM882.811 355.5C876.311 355.5 871.477 353.417 868.311 349.25C865.144 345.25 863.561 340.333 863.561 334.5C863.561 330.667 864.227 325.833 865.561 320C867.061 314.167 868.977 308.083 871.311 301.75C873.644 295.25 876.311 289.167 879.311 283.5C882.477 277.833 885.811 273.25 889.311 269.75C892.811 266.083 896.227 264.25 899.561 264.25C901.061 264.25 902.311 264.75 903.311 265.75C904.477 266.583 905.061 267.917 905.061 269.75C905.061 271.75 903.727 275 901.061 279.5C898.561 284 895.561 289.167 892.061 295C888.561 300.833 885.477 307 882.811 313.5C880.311 319.833 879.061 325.917 879.061 331.75C879.061 337.75 880.061 341.75 882.061 343.75C884.061 345.75 887.144 346.75 891.311 346.75C896.977 346.75 902.977 343.917 909.311 338.25C915.811 332.583 922.644 322.667 929.811 308.5L932.061 311C927.227 325.333 920.227 336.333 911.061 344C902.061 351.667 892.644 355.5 882.811 355.5ZM909.363 419C908.03 419 906.78 418.25 905.613 416.75C904.28 415.417 903.28 413.917 902.613 412.25C901.947 410.75 901.613 409.833 901.613 409.5C903.947 401.333 906.28 394 908.613 387.5C910.78 381.167 913.03 374.583 915.363 367.75C917.53 361.083 919.697 353.25 921.863 344.25C924.03 335.083 926.28 323.75 928.613 310.25C930.947 296.75 933.28 280 935.613 260C935.78 258.5 936.113 257.417 936.613 256.75C937.113 256.083 938.363 255.75 940.363 255.75C944.697 255.75 947.78 257 949.613 259.5C951.447 261.833 952.363 264.417 952.363 267.25C952.363 269.583 951.863 273.75 950.863 279.75C949.863 285.75 948.447 292.833 946.613 301C949.447 295.5 952.947 289.917 957.113 284.25C961.447 278.583 966.363 273.833 971.863 270C977.363 266.167 983.363 264.25 989.863 264.25C997.197 264.25 1003.2 266.917 1007.86 272.25C1012.7 277.417 1015.11 284.25 1015.11 292.75C1015.11 299.25 1013.61 306.167 1010.61 313.5C1007.78 320.667 1003.7 327.5 998.363 334C993.197 340.333 987.03 345.5 979.863 349.5C972.697 353.5 964.78 355.5 956.113 355.5C951.78 355.5 948.28 355 945.613 354C942.947 353 941.613 352 941.613 351C941.613 350.333 942.197 349.917 943.363 349.75C944.697 349.75 946.197 349.75 947.863 349.75C954.53 349.75 960.863 348.167 966.863 345C973.03 341.667 978.53 337.333 983.363 332C988.197 326.667 991.947 320.75 994.613 314.25C997.447 307.75 998.863 301.333 998.863 295C998.863 289.667 997.697 285.167 995.363 281.5C993.197 277.667 989.613 275.75 984.613 275.75C980.28 275.75 975.947 277.167 971.613 280C967.447 282.667 963.447 286.167 959.613 290.5C955.947 294.667 952.613 299.083 949.613 303.75C946.78 308.25 944.613 312.333 943.113 316C940.113 328.5 937.113 340.5 934.113 352C931.113 363.667 928.197 374.167 925.363 383.5C922.697 393 920.28 400.75 918.113 406.75C915.78 412.75 913.863 416.417 912.363 417.75C911.53 418.583 910.53 419 909.363 419ZM1049.77 360C1039.6 360 1031.94 357.167 1026.77 351.5C1021.77 346 1019.27 339.167 1019.27 331C1019.27 323.5 1021.1 315.583 1024.77 307.25C1028.6 298.917 1033.6 291.083 1039.77 283.75C1046.1 276.417 1053.02 270.5 1060.52 266C1068.02 261.333 1075.44 259 1082.77 259C1086.6 259 1090.1 260 1093.27 262C1096.6 264 1098.27 268.083 1098.27 274.25C1098.27 280.583 1096.35 286.583 1092.52 292.25C1088.85 297.75 1083.94 302.667 1077.77 307C1071.77 311.333 1065.1 314.917 1057.77 317.75C1050.6 320.417 1043.44 322.083 1036.27 322.75C1035.94 324.417 1035.69 326 1035.52 327.5C1035.35 329 1035.27 330.417 1035.27 331.75C1035.27 336.917 1036.6 341.75 1039.27 346.25C1042.1 350.583 1047.35 352.75 1055.02 352.75C1062.19 352.75 1069.27 350.75 1076.27 346.75C1083.27 342.583 1089.77 337.167 1095.77 330.5C1101.77 323.833 1106.85 316.5 1111.02 308.5L1114.02 310.75C1109.52 320.75 1103.77 329.417 1096.77 336.75C1089.94 344.083 1082.44 349.75 1074.27 353.75C1066.27 357.917 1058.1 360 1049.77 360ZM1037.52 318C1042.02 316.5 1047.1 314.333 1052.77 311.5C1058.44 308.5 1063.85 305 1069.02 301C1074.35 297 1078.69 292.583 1082.02 287.75C1085.52 282.917 1087.27 277.833 1087.27 272.5C1087.27 270.667 1086.94 269.25 1086.27 268.25C1085.6 267.25 1084.19 266.75 1082.02 266.75C1078.02 266.75 1073.77 268.333 1069.27 271.5C1064.77 274.5 1060.44 278.5 1056.27 283.5C1052.1 288.5 1048.35 294 1045.02 300C1041.69 306 1039.19 312 1037.52 318Z" fill="black"/>
<path d="M204 379.25C200.333 379.25 196 376.917 191 372.25C186.167 367.75 181.083 361.75 175.75 354.25C170.417 346.917 165.083 338.833 159.75 330C154.583 321.167 149.75 312.333 145.25 303.5C140.917 294.667 137.25 286.75 134.25 279.75C129.583 296.083 125.083 312.167 120.75 328C116.417 343.667 112.333 357.917 108.5 370.75C104.333 370.75 100.5 369.583 97 367.25C93.6667 364.917 92 361.917 92 358.25C92 356.417 92.4167 354.167 93.25 351.5C94.0833 349 94.8333 346.667 95.5 344.5C100.833 328.167 105.917 312.917 110.75 298.75C115.583 284.417 120.417 270.583 125.25 257.25C130.25 243.917 135.417 230.583 140.75 217.25C146.25 203.917 152.25 189.917 158.75 175.25C151.75 176.417 145.667 178.167 140.5 180.5C135.333 182.667 131.167 184.75 128 186.75C124.833 188.583 122.667 189.5 121.5 189.5C120.5 189.5 118.917 188.667 116.75 187C114.75 185.333 113.75 183.917 113.75 182.75C120.083 179.917 128.25 176.917 138.25 173.75C148.25 170.583 158.833 169 170 169C177.167 169 184.417 169.917 191.75 171.75C199.25 173.417 206.083 176.167 212.25 180C218.583 183.667 223.667 188.5 227.5 194.5C231.333 200.333 233.25 207.417 233.25 215.75C233.25 223.917 231.333 231 227.5 237C223.833 242.833 218.917 247.75 212.75 251.75C206.75 255.75 200.167 259 193 261.5C185.833 263.833 178.75 265.667 171.75 267C164.75 268.167 158.417 269 152.75 269.5C147.083 269.833 142.833 270 140 270C145.167 278.833 150.083 287.417 154.75 295.75C159.417 304.083 164.5 312.417 170 320.75C175.5 328.917 182 337.167 189.5 345.5C197 353.833 206.083 362.333 216.75 371C215.75 373.167 213.917 375.083 211.25 376.75C208.75 378.417 206.333 379.25 204 379.25ZM138.25 266C147.25 265.5 156.333 264.083 165.5 261.75C174.833 259.25 183.333 255.833 191 251.5C198.667 247 204.833 241.417 209.5 234.75C214.167 227.917 216.5 219.833 216.5 210.5C216.5 201.333 214.333 194.167 210 189C205.667 183.667 200.083 179.917 193.25 177.75C186.417 175.417 179.25 174.25 171.75 174.25C166.083 185.75 160.417 199.583 154.75 215.75C149.083 231.75 143.583 248.5 138.25 266ZM251.719 360C241.552 360 233.885 357.167 228.719 351.5C223.719 346 221.219 339.167 221.219 331C221.219 323.5 223.052 315.583 226.719 307.25C230.552 298.917 235.552 291.083 241.719 283.75C248.052 276.417 254.969 270.5 262.469 266C269.969 261.333 277.385 259 284.719 259C288.552 259 292.052 260 295.219 262C298.552 264 300.219 268.083 300.219 274.25C300.219 280.583 298.302 286.583 294.469 292.25C290.802 297.75 285.885 302.667 279.719 307C273.719 311.333 267.052 314.917 259.719 317.75C252.552 320.417 245.385 322.083 238.219 322.75C237.885 324.417 237.635 326 237.469 327.5C237.302 329 237.219 330.417 237.219 331.75C237.219 336.917 238.552 341.75 241.219 346.25C244.052 350.583 249.302 352.75 256.969 352.75C264.135 352.75 271.219 350.75 278.219 346.75C285.219 342.583 291.719 337.167 297.719 330.5C303.719 323.833 308.802 316.5 312.969 308.5L315.969 310.75C311.469 320.75 305.719 329.417 298.719 336.75C291.885 344.083 284.385 349.75 276.219 353.75C268.219 357.917 260.052 360 251.719 360ZM239.469 318C243.969 316.5 249.052 314.333 254.719 311.5C260.385 308.5 265.802 305 270.969 301C276.302 297 280.635 292.583 283.969 287.75C287.469 282.917 289.219 277.833 289.219 272.5C289.219 270.667 288.885 269.25 288.219 268.25C287.552 267.25 286.135 266.75 283.969 266.75C279.969 266.75 275.719 268.333 271.219 271.5C266.719 274.5 262.385 278.5 258.219 283.5C254.052 288.5 250.302 294 246.969 300C243.635 306 241.135 312 239.469 318ZM334.221 361.75C326.387 361.75 320.137 360 315.471 356.5C310.971 353.167 307.804 349 305.971 344C303.971 339 302.971 334 302.971 329C302.971 324 303.637 320.167 304.971 317.5C306.304 314.833 307.887 312.833 309.721 311.5C311.721 310.167 313.554 309.167 315.221 308.5C317.054 307.833 318.304 307.167 318.971 306.5C323.971 301 328.554 295.25 332.721 289.25C336.887 283.25 340.554 276.917 343.721 270.25V267.25C343.721 261.083 344.721 256.75 346.721 254.25C348.887 251.583 351.137 250.25 353.471 250.25C356.137 250.25 357.471 251.333 357.471 253.5C357.471 254.333 357.221 255.667 356.721 257.5C356.221 259.333 355.971 261.667 355.971 264.5C355.971 270 357.054 276 359.221 282.5C361.387 288.833 363.554 295.583 365.721 302.75C367.887 309.75 368.971 317.083 368.971 324.75C368.971 329.083 368.471 333.167 367.471 337C373.304 336 378.804 333.417 383.971 329.25C389.137 324.917 394.137 318.083 398.971 308.75L401.221 311.25C398.054 320.417 393.304 327.417 386.971 332.25C380.637 336.917 373.721 339.833 366.221 341C363.554 348.167 359.304 353.417 353.471 356.75C347.804 360.083 341.387 361.75 334.221 361.75ZM351.721 336.75C352.054 335.083 352.304 333.333 352.471 331.5C352.637 329.667 352.721 327.5 352.721 325C352.721 317.167 351.721 309.417 349.721 301.75C347.887 293.917 346.304 286.583 344.971 279.75C341.137 286.083 337.054 292.167 332.721 298C328.554 303.667 324.554 308.417 320.721 312.25C323.221 317.583 327.054 322.583 332.221 327.25C337.554 331.917 344.054 335.083 351.721 336.75ZM334.721 353C336.721 353 339.387 352.333 342.721 351C346.054 349.667 348.637 346.25 350.471 340.75C343.471 339.417 337.221 336.667 331.721 332.5C326.387 328.333 322.387 324.167 319.721 320C316.054 320.167 314.221 323.083 314.221 328.75C314.221 334.75 315.971 340.333 319.471 345.5C323.137 350.5 328.221 353 334.721 353ZM415.402 360.5C400.569 360.5 393.152 352.25 393.152 335.75C393.152 328.417 394.486 319.417 397.152 308.75C399.986 297.917 403.486 286.833 407.652 275.5C405.986 275.167 404.402 274.917 402.902 274.75C401.402 274.417 399.986 274 398.652 273.5V269C399.986 269.167 401.569 269.333 403.402 269.5C405.236 269.667 407.319 269.833 409.652 270C413.152 261 416.902 252.333 420.902 244C424.902 235.5 428.819 228 432.652 221.5C436.652 214.833 440.402 209.583 443.902 205.75C447.569 201.75 450.652 199.75 453.152 199.75C454.486 199.75 455.652 200.25 456.652 201.25C457.819 202.083 458.402 203.417 458.402 205.25C458.402 208.083 456.652 212.75 453.152 219.25C449.652 225.583 445.319 233.167 440.152 242C434.986 250.833 429.986 260.417 425.152 270.75H434.402C439.902 270.75 445.652 270.667 451.652 270.5C457.819 270.333 463.986 269.917 470.152 269.25V273.75C451.986 275.75 437.319 276.75 426.152 276.75H422.402C418.569 285.583 415.319 294.667 412.652 304C409.986 313.333 408.652 322.417 408.652 331.25C408.652 338.417 409.736 343.583 411.902 346.75C414.069 349.75 417.652 351.25 422.652 351.25C431.319 351.25 439.819 347.417 448.152 339.75C456.486 332.083 463.819 321.667 470.152 308.5L473.402 311C469.402 320.333 464.319 328.75 458.152 336.25C452.152 343.75 445.486 349.667 438.152 354C430.819 358.333 423.236 360.5 415.402 360.5Z" fill="black"/>
<path d="M479.022 269.945C481.35 251.519 486.395 232.941 493.917 216.923C496.842 230.112 504.812 240.586 514.991 244.677C513.498 248.805 512.185 253.01 511.051 257.33C516.065 257.483 521.11 257.444 526.125 257.215C534.065 243.147 550.721 235.502 564.272 248.996C567.645 239.669 570.183 230.074 571.556 220.058C565.526 220.517 559.497 221.128 553.527 222.161C555.258 217.153 556.243 211.61 556.243 205.799C556.243 198.383 554.661 191.426 551.945 185.424C563.616 183.666 575.406 183.13 587.107 181.907C595.137 181.066 601.286 190.929 601.495 200.333C602.181 226.327 596.301 250.564 587.107 273.232C596.331 282.713 604.898 291.237 614.33 301.062C626.33 285.694 640.24 272.43 654.12 260.426C661.343 254.157 669.791 257.865 675.94 264.058C694.775 282.98 713.58 301.903 732.415 320.825C735.281 323.692 737.042 326.904 737.937 330.191C743.251 330.191 748.564 330.191 753.877 330.191C777.1 330.191 777.1 376.293 753.877 376.293C708.267 376.293 662.687 376.293 617.076 376.293C606.181 376.293 599.614 369.259 595.973 365.284C570.869 337.454 554.78 323.463 529.677 295.634C529.08 294.984 528.572 294.334 528.065 293.684C516.334 294.372 504.514 293.99 492.872 293.302C482.843 292.69 477.529 282.025 479.022 269.945ZM683.91 330.153C676.835 323.043 669.731 315.932 662.657 308.822C655.523 315.321 648.419 322.355 642.061 330.153C656 330.153 669.94 330.153 683.91 330.153Z" fill="#9E2A2B"/>
<path d="M523.707 239.325C508.245 239.325 495.708 223.231 495.708 203.429C495.708 183.666 508.275 167.572 523.707 167.572C539.14 167.572 551.706 183.666 551.706 203.429C551.706 223.231 539.14 239.325 523.707 239.325Z" fill="#9E2A2B"/>
<path d="M456.388 159.196L474.587 178.791C477.242 181.649 482.921 182.068 487.273 179.727L534.526 154.305C538.877 151.963 540.253 147.749 537.598 144.89L519.399 125.296C527.259 116.951 528.247 106.363 521.128 98.6986C511.95 88.8158 492.539 87.125 477.247 94.6843C467.767 92.947 457.069 94.6235 448.131 99.4319C439.19 104.242 433.546 111.359 432.536 118.739C418.071 127.19 413.69 141.682 422.868 151.564C429.987 159.229 443.431 162.051 456.388 159.196ZM443.427 128.374C444.023 128.053 444.656 127.756 445.314 127.489C449.005 125.996 455.172 149.901 454.813 147.074C454.32 143.162 484.985 171.938 489.706 169.398C494.425 166.859 523.358 149.247 528.043 150.907C531.426 152.107 484.25 108.19 487.317 106.049C487.863 105.669 484.956 106.031 485.552 105.71C492.341 102.058 482.051 139.505 486.193 143.964C489.965 148.026 507.735 117.168 502.086 120.972C498.455 123.417 497.547 127.205 499.968 129.811L517.038 148.191L502.738 154.464L485.538 165.138L468.785 147.1C468.78 147.095 468.77 147.082 468.77 147.082C466.499 144.215 461.267 143.445 456.823 145.323C450.223 148.112 493.416 109.778 489.641 105.713C485.499 101.253 436.637 132.027 443.427 128.374Z" fill="#9E2A2B"/>
</svg>
