<svg width="1280" height="450" viewBox="0 0 1280 450" fill="none" xmlns="http://www.w3.org/2000/svg">
<path d="M854.25 293.5L860.25 298.5C856.25 307.667 849.833 315 841 320.5C832.167 326 823.583 328.75 815.25 328.75C807.083 328.75 800.25 326.167 794.75 321C789.417 315.833 786.75 308.75 786.75 299.75C786.75 290.75 790.667 281 798.5 270.5C806.333 260 816.417 251.333 828.75 244.5C841.25 237.667 853.5 234.25 865.5 234.25C867.167 234.25 869.667 234.417 873 234.75L872.25 244.5C853.917 245.333 838.667 250.917 826.5 261.25C814.5 271.583 808.5 282.583 808.5 294.25C808.5 299.083 810 303 813 306C816 309 819.917 310.5 824.75 310.5C832.417 310.5 842.25 304.833 854.25 293.5ZM928.809 223C919.475 223 914.809 219.25 914.809 211.75C914.809 207.583 915.975 204.083 918.309 201.25C920.642 198.417 923.642 197 927.309 197C930.975 197 933.975 198.083 936.309 200.25C938.642 202.417 939.809 205.25 939.809 208.75C939.809 212.25 938.809 215.5 936.809 218.5C934.809 221.5 932.142 223 928.809 223ZM925.559 296.75L930.559 301C926.559 308.667 921.225 315.25 914.559 320.75C908.059 326.083 902.142 328.75 896.809 328.75C887.475 328.75 882.809 322.25 882.809 309.25C882.809 293.083 889.475 272 902.809 246C905.809 240.333 907.559 237 908.059 236L918.809 242.5C915.309 248.833 910.975 258.917 905.809 272.75C900.809 286.583 898.309 295.5 898.309 299.5C898.309 303.333 899.142 306.083 900.809 307.75C902.475 309.417 904.475 310.25 906.809 310.25C911.309 310.25 917.559 305.75 925.559 296.75ZM981.953 283C994.62 264 1005.62 251.083 1014.95 244.25C1024.29 237.25 1032.45 233.75 1039.45 233.75C1046.45 233.75 1051.87 235.917 1055.7 240.25C1059.54 244.417 1061.45 249.75 1061.45 256.25C1061.45 274.25 1054.95 290.917 1041.95 306.25C1029.12 321.417 1014.62 329 998.453 329C991.286 329 985.62 327.75 981.453 325.25L987.453 314.5C996.12 315.667 1001.54 316.25 1003.7 316.25C1012.7 316.25 1021.12 311 1028.95 300.5C1036.79 290 1040.7 279.25 1040.7 268.25C1040.7 264.083 1039.45 260.667 1036.95 258C1034.62 255.167 1031.54 253.75 1027.7 253.75C1018.54 253.75 1008.12 261.833 996.453 278C984.953 294.167 974.12 314.167 963.953 338C953.953 362 945.203 387.5 937.703 414.5L922.703 409.25C923.036 408.25 926.203 399.583 932.203 383.25C938.036 367.083 943.786 351 949.453 335C965.12 291 972.953 266.917 972.953 262.75C972.953 252.083 970.786 242.417 966.453 233.75L978.953 227.5C984.12 234.667 986.703 242.25 986.703 250.25C986.703 258.083 985.12 269 981.953 283ZM1138.48 299.5L1144.23 304C1139.07 311.167 1131.98 317.167 1122.98 322C1113.98 326.667 1105.23 329 1096.73 329C1088.23 329 1081.4 326.5 1076.23 321.5C1071.07 316.5 1068.48 309.917 1068.48 301.75C1068.48 286.417 1076.57 271.333 1092.73 256.5C1109.07 241.667 1125.57 234.25 1142.23 234.25C1153.23 234.25 1158.73 238.583 1158.73 247.25C1158.73 256.25 1152.9 265.333 1141.23 274.5C1129.73 283.667 1113.48 292 1092.48 299.5C1093.98 303.333 1096.32 306.333 1099.48 308.5C1102.65 310.667 1105.9 311.75 1109.23 311.75C1116.4 311.75 1126.15 307.667 1138.48 299.5ZM1091.23 292C1104.73 287.333 1116.32 281.5 1125.98 274.5C1135.65 267.5 1140.48 261.083 1140.48 255.25C1140.48 253.083 1139.65 251.167 1137.98 249.5C1136.32 247.833 1134.4 247 1132.23 247C1124.4 247 1115.9 251.917 1106.73 261.75C1097.73 271.417 1092.57 281.5 1091.23 292Z" fill="black"/>
<path d="M213 345.25L214.25 357C209.583 357.833 205.5 358.25 202 358.25C194.167 358.25 186.667 353 179.5 342.5C172.333 332.167 166.667 320 162.5 306C158.5 292 156 278.5 155 265.5C146.667 287.167 138.75 302.917 131.25 312.75C123.917 322.417 116.333 327.25 108.5 327.25C104.5 327.25 101.333 325.667 99 322.5C96.6667 319.167 95.5 314.833 95.5 309.5C95.5 297.167 101.167 281.5 112.5 262.5C124 243.5 137.417 227.917 152.75 215.75C153.083 214.75 154.5 208.667 157 197.5C159.667 186.333 161.25 180.167 161.75 179L176.25 177.75C176.25 180.583 175.5 186.5 174 195.5C196.5 178.333 215 169.75 229.5 169.75C236.333 169.75 241.75 171.667 245.75 175.5C249.75 179.167 251.75 184.167 251.75 190.5C251.75 206.333 243.75 222.333 227.75 238.5C211.75 254.5 194.667 263.917 176.5 266.75C177.833 290.917 182 309.833 189 323.5C196.167 337.167 204.167 344.417 213 345.25ZM140.25 261.75C144.75 249.75 147.833 240.167 149.5 233C140.333 241.5 131.833 252.833 124 267C116.333 281.167 112.5 291.667 112.5 298.5C112.5 302 113.917 303.75 116.75 303.75C121.75 303.75 129.583 289.75 140.25 261.75ZM157.25 258.25C174.917 258.25 190.75 252.083 204.75 239.75C218.75 227.417 225.75 215.167 225.75 203C225.75 198.5 224.583 195 222.25 192.5C220.083 190 216.583 188.75 211.75 188.75C206.917 188.75 199.917 191.5 190.75 197C181.583 202.333 175 206.75 171 210.25C165.833 230.75 161.25 246.75 157.25 258.25ZM304.299 299.5L310.049 304C304.882 311.167 297.799 317.167 288.799 322C279.799 326.667 271.049 329 262.549 329C254.049 329 247.215 326.5 242.049 321.5C236.882 316.5 234.299 309.917 234.299 301.75C234.299 286.417 242.382 271.333 258.549 256.5C274.882 241.667 291.382 234.25 308.049 234.25C319.049 234.25 324.549 238.583 324.549 247.25C324.549 256.25 318.716 265.333 307.049 274.5C295.549 283.667 279.299 292 258.299 299.5C259.799 303.333 262.132 306.333 265.299 308.5C268.465 310.667 271.715 311.75 275.049 311.75C282.215 311.75 291.965 307.667 304.299 299.5ZM257.049 292C270.549 287.333 282.132 281.5 291.799 274.5C301.465 267.5 306.299 261.083 306.299 255.25C306.299 253.083 305.465 251.167 303.799 249.5C302.132 247.833 300.216 247 298.049 247C290.215 247 281.715 251.917 272.549 261.75C263.549 271.417 258.382 281.5 257.049 292ZM405.16 231.25L402.91 241C400.077 240.667 396.41 240.5 391.91 240.5C375.243 240.5 366.91 246 366.91 257C366.91 259.333 370.243 266.167 376.91 277.5C383.743 288.833 387.16 296.417 387.16 300.25C387.16 309.25 384.077 316.333 377.91 321.5C371.91 326.5 363.827 329 353.66 329C339.66 329 328.41 321.25 319.91 305.75L329.41 299C331.743 300.833 334.243 303.083 336.91 305.75C339.577 308.25 341.577 310 342.91 311C346.077 313.833 349.577 315.25 353.41 315.25C357.243 315.25 360.577 313.917 363.41 311.25C366.243 308.417 367.66 305 367.66 301C367.66 296.833 363.993 289.167 356.66 278C349.493 266.833 345.91 259 345.91 254.5C345.91 246.333 349.327 240.083 356.16 235.75C363.16 231.417 372.243 229.25 383.41 229.25C394.743 229.25 401.993 229.917 405.16 231.25ZM464.674 301L470.174 307.25C466.007 313.75 460.924 318.833 454.924 322.5C449.09 326.167 443.174 328 437.174 328C431.174 328 426.424 326.333 422.924 323C419.424 319.5 417.674 314.75 417.674 308.75C417.674 294.75 422.924 275.417 433.424 250.75C424.924 252.083 416.424 254.083 407.924 256.75L406.174 247L405.924 246.75C414.257 243.25 425.174 240.417 438.674 238.25C440.007 235.75 443.007 229.667 447.674 220C457.007 200.833 463.674 188.417 467.674 182.75L478.424 187C476.757 190.667 473.84 196.833 469.674 205.5C465.507 214 460.84 223.667 455.674 234.5C463.174 234 469.09 233.75 473.424 233.75C477.757 233.75 481.09 234.417 483.424 235.75V246.5C481.09 246 477.674 245.75 473.174 245.75C468.84 245.75 461.007 246.5 449.674 248C439.84 270 434.924 286 434.924 296C434.924 299.833 436.09 303 438.424 305.5C440.924 308 444.174 309.25 448.174 309.25C452.34 309.25 457.84 306.5 464.674 301Z" fill="black"/>
<path d="M487.022 222.945C489.35 204.519 494.395 185.941 501.917 169.923C504.842 183.112 512.812 193.586 522.991 197.677C521.498 201.805 520.185 206.01 519.051 210.33C524.065 210.483 529.11 210.444 534.125 210.215C542.065 196.147 558.721 188.502 572.272 201.996C575.645 192.669 578.183 183.074 579.556 173.058C573.526 173.517 567.497 174.128 561.527 175.161C563.258 170.153 564.243 164.61 564.243 158.799C564.243 151.383 562.661 144.426 559.945 138.424C571.616 136.666 583.406 136.13 595.107 134.907C603.137 134.066 609.286 143.929 609.495 153.333C610.181 179.327 604.301 203.564 595.107 226.232C604.331 235.713 612.898 244.237 622.33 254.062C634.33 238.694 648.24 225.43 662.12 213.426C669.343 207.157 677.791 210.865 683.94 217.058C702.775 235.98 721.58 254.903 740.415 273.825C743.281 276.692 745.042 279.904 745.937 283.191C751.251 283.191 756.564 283.191 761.877 283.191C785.1 283.191 785.1 329.293 761.877 329.293C716.267 329.293 670.687 329.293 625.076 329.293C614.181 329.293 607.614 322.259 603.973 318.284C578.869 290.454 562.78 276.463 537.677 248.634C537.08 247.984 536.572 247.334 536.065 246.684C524.334 247.372 512.514 246.99 500.872 246.302C490.843 245.69 485.529 235.025 487.022 222.945ZM691.91 283.153C684.835 276.043 677.731 268.932 670.657 261.822C663.523 268.321 656.419 275.355 650.061 283.153C664 283.153 677.94 283.153 691.91 283.153Z" fill="#9E2A2B"/>
<path d="M531.707 192.325C516.245 192.325 503.708 176.231 503.708 156.429C503.708 136.666 516.275 120.572 531.707 120.572C547.139 120.572 559.706 136.666 559.706 156.429C559.706 176.231 547.139 192.325 531.707 192.325Z" fill="#9E2A2B"/>
<path d="M464.388 112.196L482.587 131.791C485.242 134.649 490.921 135.068 495.273 132.727L542.526 107.305C546.877 104.963 548.253 100.749 545.598 97.8905L527.399 78.2962C535.259 69.9507 536.247 59.3631 529.128 51.6987C519.95 41.8158 500.539 40.125 485.247 47.6843C475.767 45.947 465.069 47.6235 456.131 52.4319C447.19 57.2424 441.546 64.3586 440.536 71.7391C426.071 80.19 421.69 94.6819 430.868 104.564C437.987 112.229 451.431 115.051 464.388 112.196ZM451.427 81.3743C452.023 81.0535 452.656 80.7562 453.314 80.4894C457.005 78.9965 463.172 102.901 462.813 100.074C462.32 96.1621 492.985 124.938 497.706 122.398C502.425 119.859 531.358 102.247 536.043 103.907C539.426 105.107 492.25 61.19 495.317 59.0494C495.863 58.6686 492.956 59.0312 493.552 58.7104C500.341 55.0576 490.051 92.5046 494.193 96.9645C497.965 101.026 515.735 70.168 510.086 73.9721C506.455 76.4174 505.547 80.2051 507.968 82.811L525.038 101.191L510.738 107.464L493.538 118.138L476.785 100.1C476.78 100.095 476.77 100.082 476.77 100.082C474.499 97.2152 469.267 96.4448 464.823 98.3225C458.223 101.112 501.416 62.7777 497.641 58.7128C493.499 54.2529 444.637 85.027 451.427 81.3743Z" fill="#9E2A2B"/>
<path d="M464.388 112.196L482.587 131.791C485.242 134.649 490.921 135.068 495.273 132.727L542.526 107.305C546.877 104.963 548.253 100.749 545.598 97.8905L527.399 78.2962C535.259 69.9507 536.247 59.3631 529.128 51.6987C519.95 41.8158 500.539 40.125 485.247 47.6843C475.767 45.947 465.069 47.6235 456.131 52.4319C447.19 57.2424 441.546 64.3586 440.536 71.7391C426.071 80.19 421.69 94.6819 430.868 104.564C437.987 112.229 451.431 115.051 464.388 112.196ZM451.427 81.3743C452.023 81.0535 452.656 80.7562 453.314 80.4894C457.005 78.9965 463.172 102.901 462.813 100.074C462.32 96.1621 492.985 124.938 497.706 122.398C502.425 119.859 531.358 102.247 536.043 103.907C539.426 105.107 492.25 61.19 495.317 59.0494C495.863 58.6686 492.956 59.0312 493.552 58.7104C500.341 55.0576 490.051 92.5046 494.193 96.9645C497.965 101.026 515.735 70.168 510.086 73.9721C506.455 76.4174 505.547 80.2051 507.968 82.811L525.038 101.191L510.738 107.464L493.538 118.138L476.785 100.1C476.78 100.095 476.77 100.082 476.77 100.082C474.499 97.2152 469.267 96.4448 464.823 98.3225C458.223 101.112 501.416 62.7777 497.641 58.7128C493.499 54.2529 444.637 85.027 451.427 81.3743Z" fill="#9E2A2B" fill-opacity="0.2"/>
</svg>
