<svg width="525" height="525" viewBox="0 0 525 525" fill="none" xmlns="http://www.w3.org/2000/svg">
<path d="M161.66 314.573C163.861 293.188 168.631 271.626 175.743 253.037C178.509 268.343 186.044 280.499 195.668 285.247C194.257 290.038 193.015 294.918 191.943 299.932C196.684 300.109 201.453 300.065 206.195 299.799C213.702 283.472 229.45 274.599 242.263 290.26C245.452 279.435 247.851 268.299 249.149 256.675C243.449 257.207 237.748 257.917 232.103 259.115C233.74 253.303 234.671 246.87 234.671 240.126C234.671 231.519 233.176 223.444 230.607 216.479C241.642 214.438 252.79 213.817 263.853 212.397C271.445 211.421 277.259 222.867 277.457 233.782C278.106 263.951 272.546 292.079 263.853 318.388C272.574 329.391 280.674 339.285 289.592 350.687C300.938 332.852 314.089 317.457 327.213 303.526C334.043 296.249 342.03 300.553 347.843 307.74C365.652 329.702 383.432 351.663 401.24 373.624C403.95 376.952 405.615 380.679 406.461 384.494C411.485 384.494 416.509 384.494 421.532 384.494C443.489 384.494 443.489 438 421.532 438C378.408 438 335.313 438 292.189 438C281.887 438 275.679 429.837 272.235 425.222C248.5 392.924 233.288 376.686 209.553 344.387C208.989 343.633 208.509 342.878 208.029 342.124C196.938 342.923 185.762 342.479 174.755 341.681C165.272 340.971 160.249 328.593 161.66 314.573ZM355.379 384.45C348.69 376.198 341.973 367.945 335.284 359.693C328.539 367.236 321.822 375.399 315.811 384.45C328.991 384.45 342.171 384.45 355.379 384.45Z" fill="#9E2A2B"/>
<path d="M203.909 279.035C189.29 279.035 177.437 260.357 177.437 237.375C177.437 214.438 189.318 195.759 203.909 195.759C218.5 195.759 230.382 214.438 230.382 237.375C230.382 260.357 218.5 279.035 203.909 279.035Z" fill="#9E2A2B"/>
<path d="M140.26 186.038L157.467 208.78C159.977 212.097 165.347 212.584 169.461 209.867L214.138 180.361C218.252 177.644 219.553 172.753 217.042 169.436L199.836 146.695C207.268 137.009 208.201 124.721 201.471 115.826C192.793 104.356 174.44 102.393 159.982 111.167C151.019 109.15 140.903 111.096 132.453 116.677C123.999 122.26 118.663 130.519 117.708 139.084C104.031 148.893 99.8892 165.712 108.567 177.181C115.298 186.077 128.009 189.352 140.26 186.038ZM128.005 150.267C128.569 149.895 129.167 149.55 129.789 149.24C133.279 147.507 139.11 175.251 138.771 171.97C138.304 167.43 167.298 200.826 171.761 197.879C176.223 194.932 203.579 174.492 208.008 176.418C211.207 177.81 166.603 126.841 169.502 124.357C170.019 123.915 167.27 124.336 167.834 123.963C174.253 119.724 164.523 163.185 168.44 168.361C172.006 173.075 188.807 137.261 183.466 141.676C180.033 144.514 179.175 148.91 181.464 151.934L197.603 173.266L184.083 180.547L167.82 192.935L151.981 172C151.976 171.994 151.967 171.979 151.967 171.979C149.819 168.652 144.873 167.758 140.671 169.937C134.431 173.175 175.27 128.684 171.7 123.966C167.784 118.79 121.586 154.506 128.005 150.267Z" fill="#9E2A2B"/>
</svg>
